<?xml version="1.0" standalone="no"?>
<!DOCTYPE svg PUBLIC "-//W3C//DTD SVG 20010904//EN"
 "http://www.w3.org/TR/2001/REC-SVG-20010904/DTD/svg10.dtd">
<svg version="1.0" xmlns="http://www.w3.org/2000/svg"
 width="1280.000000pt" height="959.000000pt" viewBox="0 0 1280.000000 959.000000"
 preserveAspectRatio="xMidYMid meet">
<metadata>
Created by potrace 1.15, written by Peter Selinger 2001-2017
</metadata>
<g transform="translate(0.000000,959.000000) scale(0.100000,-0.100000)"
fill="#ffc107" stroke="none">
<path d="M6910 9581 c-118 -38 -194 -151 -176 -260 3 -21 44 -165 91 -322 191
-632 280 -927 357 -1179 44 -146 113 -375 154 -510 81 -269 99 -306 178 -354
62 -39 158 -43 222 -9 53 28 107 91 122 142 25 82 49 -6 -358 1336 -27 88
-105 349 -175 580 -70 231 -134 433 -142 450 -22 44 -62 84 -107 107 -43 22
-128 32 -166 19z"/>
<path d="M9284 9415 c-96 -48 -94 -42 -284 -675 -148 -492 -297 -984 -425
-1405 -42 -137 -79 -273 -82 -301 -20 -185 189 -319 352 -225 71 41 99 88 146
242 77 254 261 864 309 1024 27 88 85 282 130 430 45 149 106 351 136 450 66
215 72 256 50 320 -23 68 -58 109 -118 139 -70 35 -145 35 -214 1z"/>
<path d="M4678 8665 c-94 -18 -219 -63 -278 -100 -93 -58 -385 -295 -935 -759
-641 -541 -912 -743 -1360 -1012 -693 -416 -1225 -611 -1722 -631 l-153 -6 0
-2418 0 -2418 588 -3 588 -3 78 -39 c50 -24 141 -88 254 -179 98 -78 204 -160
237 -183 91 -64 215 -122 306 -145 81 -20 102 -20 863 -16 802 4 830 6 1041
48 528 106 972 447 1035 797 20 114 -19 248 -99 335 -23 24 -41 47 -41 50 0 3
24 13 52 23 148 49 265 121 357 219 116 124 158 250 148 443 -9 173 -49 297
-133 406 -20 26 -34 49 -32 50 1 2 28 16 58 31 195 97 343 269 385 448 27 114
13 284 -30 367 l-16 30 133 0 c73 0 237 3 364 7 l231 6 43 -64 c147 -217 317
-385 532 -526 416 -273 932 -352 1423 -218 600 163 1089 665 1255 1287 45 171
62 301 62 493 0 185 -15 309 -57 477 -153 600 -608 1093 -1186 1282 -285 93
-610 111 -909 50 -200 -41 -467 -157 -635 -276 -146 -102 -332 -279 -406 -386
l-16 -22 -1168 2 -1168 3 190 142 c509 380 719 598 993 1033 140 220 183 352
183 555 0 151 -26 265 -88 390 -104 212 -281 356 -510 416 -105 28 -344 35
-457 14z"/>
<path d="M11355 7998 c-16 -6 -46 -22 -65 -37 -95 -70 -1593 -1320 -1642
-1370 -87 -89 -106 -179 -61 -294 21 -51 101 -121 157 -137 56 -15 139 -9 187
14 20 9 413 330 873 712 650 541 842 706 863 741 36 62 43 162 16 224 -46 103
-131 159 -238 158 -33 0 -73 -5 -90 -11z"/>
<path d="M11355 5514 c-612 -58 -1123 -111 -1151 -119 -56 -16 -120 -70 -151
-127 -26 -49 -24 -170 4 -223 45 -85 128 -134 226 -135 78 0 2293 208 2336
220 113 31 192 153 176 275 -8 71 -54 140 -119 180 -44 27 -59 30 -135 32 -48
1 -576 -45 -1186 -103z"/>
<path d="M10035 3898 c-113 -43 -177 -133 -176 -249 0 -69 17 -114 65 -166 59
-65 1652 -1386 1702 -1412 34 -17 64 -24 108 -24 196 -1 317 195 230 371 -27
54 -74 94 -868 754 -461 383 -855 705 -874 714 -44 21 -147 27 -187 12z"/>
<path d="M9136 2824 c-106 -34 -187 -161 -172 -271 7 -57 -17 -2 482 -1083
310 -672 442 -947 467 -976 124 -143 351 -103 430 75 15 35 18 58 14 110 -4
61 -37 135 -459 1050 -276 596 -467 999 -486 1022 -62 73 -178 104 -276 73z"/>
<path d="M7910 2731 c-72 -22 -129 -73 -157 -139 -7 -18 -58 -324 -113 -680
-54 -356 -133 -872 -175 -1147 -80 -518 -84 -570 -51 -633 44 -85 150 -141
243 -128 84 11 157 67 190 144 7 18 58 324 113 680 54 356 133 872 175 1147
80 518 84 570 51 633 -50 96 -177 153 -276 123z"/>
</g>
</svg>
